<svg width="816" height="497" viewBox="0 0 816 497" fill="none" xmlns="http://www.w3.org/2000/svg">
<path d="M221.749 251.267H190.332V140.99C190.332 136.798 188.81 133.19 185.776 130.147C182.733 127.113 179.125 125.591 174.933 125.591H127.489V251.276H96.0725V125.591H48.6285C44.4372 125.591 40.8199 127.113 37.7857 130.147C34.7424 133.19 33.2299 136.798 33.2299 140.99V251.276H1.81317V140.042C1.81317 127.687 6.41453 116.953 15.6355 107.833C24.8473 98.7211 35.5351 94.1653 47.6809 94.1653H175.872C188.227 94.1653 198.97 98.7211 208.081 107.833C217.193 116.944 221.749 127.678 221.749 140.042V251.267V251.267Z" fill="#D71D1D"/>
<path d="M260.482 94.1744V141.618C260.482 145.81 261.995 149.427 265.038 152.461C268.072 155.495 271.689 157.017 275.881 157.017H339.352C343.543 157.017 347.151 155.45 350.195 152.306C353.229 149.163 354.75 145.6 354.75 141.628V94.1836H386.167V142.575C386.167 154.73 381.557 165.409 372.345 174.621C363.124 183.842 352.445 188.443 340.299 188.443H323.334V251.285H291.917V188.443H274.951C262.796 188.443 252.118 183.887 242.906 174.776C233.685 165.664 229.083 154.93 229.083 142.566V94.1744H260.482V94.1744Z" fill="#D71D1D"/>
<path d="M216.118 433.854C216.118 450.565 209.849 465.262 197.311 477.945C184.774 490.629 170.004 496.961 153.011 496.961H0V280.844H153.011C169.721 280.844 184.418 287.185 197.102 299.859C209.776 312.543 216.118 327.24 216.118 343.95V433.854ZM172.901 432.561V345.253C172.901 339.495 170.806 334.52 166.633 330.338C162.45 326.165 157.485 324.069 151.717 324.069H43.2254V453.736H151.717C157.476 453.736 162.45 451.576 166.633 447.248C170.806 442.929 172.901 438.037 172.901 432.561Z" fill="black"/>
<path d="M445.985 496.961H402.759V410.51H316.309L294.696 367.285H402.75V345.244C402.75 339.486 400.655 334.511 396.481 330.329C392.299 326.155 387.333 324.06 381.566 324.06H294.259C288.491 324.06 283.516 326.155 279.343 330.329C275.161 334.511 273.074 339.477 273.074 345.244V496.961H229.849V343.95C229.849 326.948 236.181 312.178 248.865 299.65C261.539 287.112 276.236 280.844 292.956 280.844H382.86C399.57 280.844 414.267 287.185 426.951 299.859C439.643 312.543 445.985 327.24 445.985 343.95V496.961Z" fill="black"/>
<path d="M591.415 324.661H507.497V496.961H591.415V324.661Z" fill="black"/>
<path d="M810.986 86.794C809.045 83.3498 806.731 79.1949 800.762 77.5184C792.216 75.1221 778.403 75.6505 778.403 75.6505L732.79 74.9581C732.79 74.9581 707.36 73.8373 701.455 76.507C693.136 80.2701 682.521 93.2541 682.521 93.2541L666.977 109.701L532.372 250.894L516.864 234.793C504.435 221.545 496.144 212.579 484.964 208.015C478.194 205.254 434.285 206.101 434.285 206.101C434.285 206.101 396.809 206.593 380.281 207.823C374.258 208.27 364.017 218.165 362.687 220.215C352.144 236.443 356.8 249.436 371.315 263.194L503.697 385.936C518.294 399.786 542.622 402.684 558.704 391.513L558.977 391.777L560.435 390.246C561.729 389.226 562.977 388.141 564.125 386.921L579.05 371.185L566.722 358.857L581.337 343.522C584.189 346.902 587.752 349.39 592.116 349.39C604.043 349.39 620.162 330.684 621.191 329.59L804.27 133.71C816.935 120.37 819.614 102.065 810.986 86.794ZM525.091 374.456L387.971 246.957C383.889 243.085 385.967 232.424 391.206 232.06C396.645 231.677 441.848 231.696 464.354 231.659C469.201 231.65 472.991 231.796 474.795 232.543C477.429 233.627 498.404 254.019 498.404 254.019L514.586 269.563L481.556 304.206L551.834 371.212L549.383 373.818C542.877 380.67 531.952 380.952 525.091 374.456Z" fill="#D71D1D"/>
<path d="M604.317 323.094C599.369 317.381 592.499 311.723 589.501 309.244C588.49 307.686 577.292 296.816 568.317 288.196L516.864 234.794C504.436 221.545 496.144 212.579 484.964 208.015C478.194 205.254 434.285 206.101 434.285 206.101C434.285 206.101 396.81 206.593 380.281 207.823C374.258 208.27 364.017 218.165 362.687 220.215C352.144 236.443 356.801 249.436 371.315 263.194L503.698 385.936C518.294 399.786 542.622 402.684 558.704 391.513L568.891 381.909L616.016 334.784L604.317 323.094Z" fill="#AF0000"/>
<path d="M414.286 106.238C414.677 103.815 413.939 101.473 413.748 99.0856C411.889 76.4798 416.901 55.4958 428.554 36.079C430.55 32.7624 434.03 31.751 437.083 33.5004C440.172 35.2681 441.074 38.9583 439.042 42.3478C433.402 51.7327 429.411 61.7554 427.306 72.5071C424.755 85.5276 425.101 98.4934 428.08 111.414C428.828 114.63 427.342 117.464 424.408 118.721C421.875 119.805 418.932 118.84 417.092 116.334C416.937 116.124 416.737 115.942 416.563 115.751C415.798 112.58 415.042 109.409 414.286 106.238Z" fill="#AF0000"/>
<path d="M535.816 166.238C517.064 170.712 498.303 175.195 479.543 179.659C475.552 180.607 472.773 179.377 471.452 176.179C470.85 174.721 471.005 173.281 471.351 171.796C473.256 163.696 475.105 155.577 477.046 147.477C477.392 146.038 477.347 144.716 477.01 143.295C474.513 132.789 471.57 122.366 469.702 111.751C466.422 93.0902 472.326 77.227 486.139 64.3978C488.946 61.7919 490.987 59.5414 491.36 55.2589C492.08 47.0585 499.251 40.4161 507.096 39.3865C515.798 38.2476 523.807 42.4389 527.388 50.0836C527.88 51.1314 528.472 51.5779 529.593 51.8148C550.959 56.3068 565.046 68.8625 570.959 89.9832C573.665 99.6506 575.725 109.509 578.039 119.286C578.358 120.644 578.895 121.783 579.816 122.858C585.164 129.145 590.449 135.486 595.743 141.819C599.661 146.502 598.048 151.368 592.08 152.798C573.328 157.3 554.577 161.764 535.816 166.238Z" fill="black"/>
<path d="M618.476 63.3317C618.777 64.58 619.251 65.8283 619.333 67.0948C619.533 70.2109 617.155 73.0811 614.221 73.482C611.041 73.9194 608.107 72.0151 607.314 68.8169C605.273 60.6165 602.312 52.7805 598.194 45.4001C590.649 31.8876 580.344 20.972 567.296 12.6622C565.356 11.423 563.561 10.1109 563.16 7.66904C562.75 5.19069 563.515 3.07679 565.602 1.60983C567.816 0.0517467 570.176 0.0426468 572.481 1.43672C579.278 5.5916 585.51 10.4754 591.169 16.079C604.563 29.3546 613.583 45.1632 618.476 63.3317Z" fill="#AF0000"/>
<path d="M455.716 46.448C457.465 46.1017 459.579 46.7578 461.146 48.7623C462.823 50.9127 462.941 53.2908 461.602 55.6143C459.297 59.6234 457.192 63.7145 455.634 68.0789C451.333 80.1426 450.695 92.4251 453.465 104.899C454.103 107.778 453.566 110.193 451.151 111.942C447.497 114.584 442.632 112.498 441.593 107.851C438.705 94.9854 438.859 82.1836 442.386 69.4456C444.299 62.5391 447.151 56.0425 450.805 49.8922C451.78 48.2339 453.064 47.0311 455.716 46.448Z" fill="#AF0000"/>
<path d="M592.918 68.6164C593.155 69.6096 593.392 70.5936 593.629 71.5868C594.494 75.2314 592.681 78.5389 589.319 79.441C586.012 80.3248 582.75 78.302 581.802 74.6483C578.604 62.211 572.554 51.432 563.233 42.5391C559.98 39.4411 556.444 36.7076 552.627 34.3386C550.586 33.0721 549.31 31.3136 549.328 28.8534C549.374 23.9514 554.586 21.1815 558.868 23.8239C567.861 29.3819 575.433 36.4708 581.538 45.1085C586.64 52.3158 590.376 60.17 592.918 68.6164Z" fill="#AF0000"/>
<path d="M512.855 184.361C530.258 180.206 547.187 176.17 564.545 172.024C560.335 181.828 553.501 188.343 543.597 191.231C532.372 194.493 522.221 191.987 512.855 184.361Z" fill="black"/>
</svg>
